<svg height="600" version="1.1" width="800" xmlns="http://www.w3.org/2000/svg" preserveAspectRatio="xMidYMid meet" viewBox="0 0 600 442" xmlns:xlink="http://www.w3.org/1999/xlink"><desc>Created with Snap</desc><defs/><g id="root" contentwidth="200" contentheight="125.86298459904408">
          <rect class="background" height="2000%" width="2000%" y="-1000%" x="-1000%" style="" fill="#9013fe"/>
          <g class="content" id="content" transform="matrix(1.0621,0,0,1.0621,193.4148,243.2517)">
            <g class="icon">
            </g>
            <g id="icon_name_and_slogan_gap">
            </g>
            <g class="name_and_slogan" id="name_and_slogan_id">
              <g class="name"><g id="nameDefaultGroup"><path d="M6.2 10.2L39.6 -29.4L14.1 -59.5L6.5 -59.5L6.5 -71.6L41.7 -71.6L40.1 -80.2L58.6 -80.2L60.1 -71.6L93.6 -71.6L93.6 -59.5L84.3 -59.5L59.4 -29.6L93.9 10.2L73.3 10.2L49.5 -17.8L26.1 10.2L6.2 10.2M33.5 -59.5L49.4 -41.1L64.9 -59.5L33.5 -59.5M127.7 -44L129.9 -67.6L109.2 -67.6L109.2 -78.6L187.5 -78.6L187.5 -3L194.5 -3L194.5 8.3L106 8.3L106 -3L123.7 -3L126.5 -32L110.8 -32L110.8 -44L127.7 -44M139.9 -3L170.5 -3L170.5 -32L143 -32L139.9 -3M146.8 -67.6L144.3 -44L170.5 -44L170.5 -67.6L146.8 -67.6z" style="" fill="#ffffff" id="namepathdata"/></g></g>
              <g class="slogan"><g id="sloganDefaultGroup"><path d="M79.75 36.800000000000004L86.35000000000001 36.800000000000004L86.35000000000001 38.300000000000004L74.75 38.300000000000004L74.75 27.500000000000004L86.35000000000001 27.500000000000004L86.35000000000001 29.000000000000004L79.75 29.000000000000004L79.75 36.800000000000004M101.75 28.200000000000003L101.75 38.300000000000004L96.75 38.300000000000004L96.75 29.800000000000004L91.15 29.800000000000004L91.15 38.300000000000004L88.65 38.300000000000004L88.65 21.700000000000003L91.15 21.700000000000003L91.15 28.200000000000003L101.75 28.200000000000003M116.85000000000001 27.500000000000004L116.85000000000001 35.00000000000001Q116.85000000000001 36.50000000000001 115.85000000000001 37.400000000000006Q114.75 38.300000000000004 112.75 38.300000000000004L112.75 38.300000000000004L104.05000000000001 38.300000000000004L104.05000000000001 31.600000000000005L111.95 31.600000000000005L111.85000000000001 29.100000000000005L104.05000000000001 29.100000000000005L104.05000000000001 27.500000000000004L116.85000000000001 27.500000000000004M111.95 36.800000000000004L111.95 33.1L106.55000000000001 33.1L106.55000000000001 36.800000000000004L111.95 36.800000000000004M125.45 28.900000000000006L125.45 36.800000000000004L128.15 36.800000000000004L128.15 38.300000000000004L120.45 38.300000000000004L120.45 28.900000000000006L118.05000000000001 28.900000000000006L118.05000000000001 27.300000000000004L120.45 27.300000000000004L120.45 23.500000000000004L125.45 23.500000000000004L125.45 27.300000000000004L128.15 27.300000000000004L128.15 28.900000000000006L125.45 28.900000000000006zM6.2 28.500000000000004L70.65 28.500000000000004L70.65 31.500000000000004L6.2 31.500000000000004M130.05 28.500000000000004L194.5 28.500000000000004L194.5 31.500000000000004L130.05 31.500000000000004" style="" fill="#ffffff" id="sloganpathdata"/></g></g>
            </g>
            <g class="border">
            </g>
          </g>
          
          <defs id="defs">
            <mask xmlns="http://www.w3.org/2000/svg" id="mask">
                <rect id="showAll" fill="white" x="0" y="0" width="0" height="0"/>
                <rect id="hideNameBg" fill="black" x="0" y="0" width="0" height="0" stroke-width="2" stroke="black"/>
                <rect id="hideSloganBg" fill="black" x="0" y="0" width="0" height="0" stroke-width="2" stroke="black"/>
            </mask>
          </defs>
          
        </g>
        </svg>